<?xml version="1.0" standalone="no"?><!DOCTYPE svg PUBLIC "-//W3C//DTD SVG 1.1//EN" "http://www.w3.org/Graphics/SVG/1.1/DTD/svg11.dtd"><svg t="1583157367671" class="icon" viewBox="0 0 1024 1024" version="1.1" xmlns="http://www.w3.org/2000/svg" p-id="1647" xmlns:xlink="http://www.w3.org/1999/xlink" width="200" height="200"><defs><style type="text/css"></style></defs><path d="M192 320a64 64 0 0 1 64 64v448a64 64 0 0 1-64 64H64a64 64 0 0 1-64-64V384a64 64 0 0 1 64-64h128z m384-192a64 64 0 0 1 64 64v640a64 64 0 0 1-64 64H448a64 64 0 0 1-64-64V192a64 64 0 0 1 64-64h128z m384 320a64 64 0 0 1 64 64v320a64 64 0 0 1-64 64h-128a64 64 0 0 1-64-64V512a64 64 0 0 1 64-64h128z" p-id="1648"></path></svg>