<?xml version="1.0" standalone="no"?><!DOCTYPE svg PUBLIC "-//W3C//DTD SVG 1.1//EN" "http://www.w3.org/Graphics/SVG/1.1/DTD/svg11.dtd"><svg t="1583936455625" class="icon" viewBox="0 0 1024 1024" version="1.1" xmlns="http://www.w3.org/2000/svg" p-id="3847" xmlns:xlink="http://www.w3.org/1999/xlink" width="200" height="200"><defs><style type="text/css"></style></defs><path d="M512.57 510.89m-404.83 0a404.83 404.83 0 1 0 809.66 0 404.83 404.83 0 1 0-809.66 0Z" fill="#AC8B73" p-id="3848"></path><path d="M511.72 505.23m-327.96 0a327.96 327.96 0 1 0 655.92 0 327.96 327.96 0 1 0-655.92 0Z" fill="#DBCCAC" p-id="3849"></path><path d="M904 345.52a426.17 426.17 0 1 0 33.39 165.37A423.4 423.4 0 0 0 904 345.52zM512.57 895.73c-212.2 0-384.83-172.64-384.83-384.83s172.63-384.84 384.83-384.84 384.84 172.63 384.84 384.83-172.64 384.84-384.84 384.84z" fill="#887262" p-id="3850"></path><path d="M645.68 188.12a345.33 345.33 0 1 0 109.39 73.75 342 342 0 0 0-109.39-73.75zM511.72 817C339.81 817 200 677.13 200 505.23s139.81-311.75 311.72-311.75 311.75 139.85 311.75 311.75S683.62 817 511.72 817z" fill="#887262" p-id="3851"></path><path d="M496.72 226.51l30 0 0 89-30 0 0-89Z" fill="#887262" p-id="3852"></path><path d="M511.72 524a14.91 14.91 0 0 0 3.11-0.33h166.1a15 15 0 1 0 0-30H526.72v-93.36a15 15 0 0 0-30 0V509a15 15 0 0 0 15 15zM390.09 270.55a15 15 0 0 0-26 15l29.51 51.09a15 15 0 0 0 26-15zM337.62 393.19l-51.05-29.58a15 15 0 0 0-15 26l51.05 29.58a15 15 0 0 0 20.5-5.46 15 15 0 0 0-5.5-20.54zM317.19 510.26a15 15 0 0 0-14.89-15.11l-59-0.45a15 15 0 0 0-0.23 30l59 0.45a15 15 0 0 0 15.12-14.89zM342.47 607a15 15 0 0 0-20.41-5.77l-51.49 28.8a15 15 0 0 0-5.77 20.41 15 15 0 0 0 20.41 5.77l51.49-28.8a15 15 0 0 0 5.77-20.41zM413.63 679.37a15 15 0 0 0-20.55 5.25L363 735.36a15 15 0 0 0 5.25 20.55 15 15 0 0 0 20.55-5.25l30.1-50.75a15 15 0 0 0-5.27-20.54zM513.71 705.08a15 15 0 0 0-15.18 14.81l-0.73 59a15 15 0 0 0 14.81 15.18 15 15 0 0 0 15.18-14.81l0.73-59a15 15 0 0 0-14.81-15.18zM632.07 683.55A15 15 0 1 0 606 698.38l29.16 51.29a15 15 0 0 0 20.45 5.63 15 15 0 0 0 5.63-20.45zM753.36 630.38l-50.91-29.81a15 15 0 0 0-20.52 5.37 15 15 0 0 0 5.37 20.52l50.91 29.81a15 15 0 1 0 15.16-25.89zM706.75 508.34a15 15 0 0 0 14.92 15.08l59 0.31a15 15 0 0 0 15.08-14.92 15 15 0 0 0-14.92-15.08l-59-0.31a15 15 0 0 0-15.08 14.92zM679.37 411.45a15 15 0 0 0 20.47 5.55l51.22-29.28a15 15 0 0 0-14.89-26L685 391a15 15 0 0 0-5.63 20.45zM607.31 341.37a15 15 0 0 0 20.51-5.4l29.72-51a15 15 0 1 0-25.92-15.11l-29.72 51a15 15 0 0 0 5.41 20.51z" fill="#887262" p-id="3853"></path></svg>