<?xml version="1.0" standalone="no"?><!DOCTYPE svg PUBLIC "-//W3C//DTD SVG 1.1//EN" "http://www.w3.org/Graphics/SVG/1.1/DTD/svg11.dtd"><svg t="1583154600404" class="icon" viewBox="0 0 1024 1024" version="1.1" xmlns="http://www.w3.org/2000/svg" p-id="1263" xmlns:xlink="http://www.w3.org/1999/xlink" width="200" height="200"><defs><style type="text/css"></style></defs><path d="M964.576 251.424C931.424 265.728 895.424 276 858.272 280 896.576 257.152 925.728 221.152 939.424 178.304 904 199.424 864 214.848 822.272 222.848 788.576 186.848 740.576 164.576 687.424 164.576 585.152 164.576 502.848 247.424 502.848 349.152 502.848 363.424 504.576 377.728 507.424 391.424 354.272 383.424 217.728 310.304 126.848 198.304 110.848 225.728 101.728 257.152 101.728 291.424 101.728 355.424 134.272 412 184 445.152 153.728 444 125.152 435.424 100.576 421.728L100.576 424C100.576 513.728 164 588 248.576 605.152 233.152 609.152 216.576 611.424 200 611.424 188 611.424 176.576 610.304 165.152 608.576 188.576 681.728 256.576 734.848 337.728 736.576 274.272 786.304 194.848 815.424 108.576 815.424 93.152 815.424 78.848 814.848 64 813.152 145.728 865.728 242.848 896 347.424 896 686.848 896 872.576 614.848 872.576 370.848 872.576 362.848 872.576 354.848 872 346.848 908 320.576 939.424 288 964.576 251.424Z" p-id="1264"></path></svg>